<?xml version="1.0" encoding="UTF-8"?>
<svg xmlns="http://www.w3.org/2000/svg" xmlns:xlink="http://www.w3.org/1999/xlink" width="52px" height="36px" viewBox="0 0 52 36" version="1.1">
<g id="surface1">
<path style=" stroke:none;fill-rule:nonzero;fill:rgb(100%,0%,0%);fill-opacity:1;" d="M 1.921875 10.488281 C 1.921875 10.488281 3.445312 13.585938 6.632812 13.875 C 9.820312 14.167969 12.863281 11.164062 12.863281 11.164062 C 12.863281 11.164062 14.625 10.339844 17.714844 10.488281 C 20.808594 10.628906 26.613281 12.035156 30.511719 11.84375 C 34.414062 11.648438 36.9375 11.503906 38.363281 10 C 39.789062 8.5 39.3125 4.960938 42.121094 3.464844 C 44.929688 1.964844 47.640625 4.042969 47.832031 5.789062 C 48.019531 7.53125 50.160156 8.113281 51.300781 8.402344 C 52.445312 8.695312 51.921875 11.308594 51.492188 11.84375 C 51.066406 12.375 48.257812 12.085938 47.210938 13.292969 C 46.164062 14.507812 46.308594 20.414062 44.878906 22.886719 C 43.453125 25.355469 43.90625 32.015625 44.953125 33.371094 C 44.953125 33.371094 45.378906 32.355469 46.378906 32.402344 C 47.378906 32.453125 48.332031 32.742188 48.613281 33.371094 C 48.898438 34 49.234375 35.359375 48.425781 35.601562 C 47.617188 35.84375 43.785156 36.738281 42.167969 34.65625 C 41.21875 33.738281 40.550781 28.40625 40.695312 25.550781 C 40.695312 25.550781 39.789062 23.03125 36.507812 23.226562 C 33.222656 23.417969 24.566406 25.210938 20.191406 24.144531 C 20.191406 24.144531 20.191406 29.183594 17.523438 30.101562 C 16.382812 30.394531 16.195312 33.882812 17.859375 33.445312 C 19.523438 33.007812 19.902344 33.929688 19.855469 34.414062 C 19.808594 34.898438 20.191406 35.042969 19.285156 35.382812 C 18.378906 35.722656 14.910156 35.382812 14.910156 35.382812 C 14.910156 35.382812 12.816406 31.023438 13.765625 27.199219 C 14.71875 23.371094 12.148438 17.65625 12.863281 15.863281 C 13.578125 14.066406 12.722656 13.875 12.722656 13.875 C 12.722656 13.875 6.109375 22.933594 1.875 17.554688 C -2.359375 12.175781 1.921875 10.488281 1.921875 10.488281 Z M 1.921875 10.488281 "/>
<path style=" stroke:none;fill-rule:nonzero;fill:rgb(100%,0%,0%);fill-opacity:1;" d="M 44.429688 4.066406 C 44.429688 4.066406 44.667969 1.792969 41.90625 0 C 41.929688 1.328125 40.625 2.839844 40.199219 5.910156 "/>
<path style=" stroke:none;fill-rule:nonzero;fill:rgb(100%,100%,100%);fill-opacity:1;" d="M 47.167969 7.246094 C 47.085938 7.625 46.757812 7.675781 46.382812 7.589844 C 46.011719 7.507812 45.738281 7.320312 45.820312 6.941406 C 45.902344 6.5625 46.265625 6.472656 46.636719 6.558594 C 47.007812 6.640625 47.25 6.871094 47.167969 7.246094 Z M 47.167969 7.246094 "/>
<path style=" stroke:none;fill-rule:nonzero;fill:rgb(100%,0%,0%);fill-opacity:1;" d="M 43.523438 1.46875 C 43.523438 1.46875 44.453125 0.773438 45.144531 0 C 45.144531 0 47.003906 2.273438 46.097656 3.484375 L 43.78125 3.632812 Z M 43.523438 1.46875 "/>
</g>
</svg>
